<svg xmlns="http://www.w3.org/2000/svg" viewBox="0 0 512 256" width="512" height="256"><g transform="translate(0 0)"><g transform="translate(128 204) rotate(0) scale(1.028 1.050) translate(-128 -204)"><rect x="92" y="196" width="26" height="14" rx="7" fill="#6cbf8b"/><rect x="138" y="196" width="26" height="14" rx="7" fill="#6cbf8b"/><ellipse cx="128" cy="151" rx="66" ry="58" fill="#9adcb0" stroke="#2f6b4f" stroke-width="3"/><ellipse cx="118" cy="167" rx="40.92" ry="29" fill="#c9f0d6" opacity="0.8"/><path d="M 124 95 q -4 -10 -12 -13" fill="none" stroke="#2f6b4f" stroke-width="3" stroke-linecap="round"/><ellipse cx="109" cy="84" rx="10" ry="6" fill="#6cbf8b" transform="rotate(-28 109 84)"/></g><ellipse cx="105" cy="143" rx="7.5" ry="3.375" fill="#1f2933"/><ellipse cx="151" cy="143" rx="7.5" ry="3.375" fill="#1f2933"/><path d="M 116 166 Q 128 154.6 140 166" fill="none" stroke="#1f2933" stroke-width="4" stroke-linecap="round"/></g><g transform="translate(256 0)"><g transform="translate(128 204) rotate(0) scale(1.044 1.080) translate(-128 -204)"><rect x="92" y="196" width="26" height="14" rx="7" fill="#6cbf8b"/><rect x="138" y="196" width="26" height="14" rx="7" fill="#6cbf8b"/><ellipse cx="128" cy="153" rx="66" ry="58" fill="#9adcb0" stroke="#2f6b4f" stroke-width="3"/><ellipse cx="118" cy="169" rx="40.92" ry="29" fill="#c9f0d6" opacity="0.8"/><path d="M 124 97 q -4 -10 -12 -13" fill="none" stroke="#2f6b4f" stroke-width="3" stroke-linecap="round"/><ellipse cx="109" cy="86" rx="10" ry="6" fill="#6cbf8b" transform="rotate(-28 109 86)"/></g><ellipse cx="105" cy="145" rx="7.5" ry="3.375" fill="#1f2933"/><ellipse cx="151" cy="145" rx="7.5" ry="3.375" fill="#1f2933"/><path d="M 116 168 Q 128 156.6 140 168" fill="none" stroke="#1f2933" stroke-width="4" stroke-linecap="round"/></g></svg>